<svg width="33" height="31" viewBox="0 0 33 31" fill="none" xmlns="http://www.w3.org/2000/svg">
<path d="M11.75 29.7031C12.0104 29.7031 12.1615 29.5521 12.2031 29.25C12.3281 28.2708 12.4531 27.5 12.5781 26.9375C12.7135 26.3854 12.9271 25.9688 13.2188 25.6875C13.5104 25.4062 13.9375 25.1927 14.5 25.0469C15.0729 24.901 15.8646 24.7396 16.875 24.5625C17.1771 24.5208 17.3281 24.375 17.3281 24.125C17.3281 23.8646 17.1927 23.7135 16.9219 23.6719C15.9115 23.4635 15.1198 23.2865 14.5469 23.1406C13.974 22.9948 13.5365 22.7865 13.2344 22.5156C12.9427 22.2344 12.7292 21.8177 12.5938 21.2656C12.4583 20.7135 12.3281 19.9479 12.2031 18.9688C12.1615 18.6771 12.0104 18.5312 11.75 18.5312C11.4792 18.5312 11.3229 18.6719 11.2812 18.9531C11.1562 19.9531 11.026 20.7344 10.8906 21.2969C10.7552 21.8594 10.5417 22.2865 10.25 22.5781C9.96875 22.8698 9.53646 23.0885 8.95312 23.2344C8.36979 23.3698 7.57292 23.5156 6.5625 23.6719C6.44792 23.6823 6.34896 23.7292 6.26562 23.8125C6.18229 23.8854 6.14062 23.9896 6.14062 24.125C6.14062 24.375 6.28125 24.5208 6.5625 24.5625C7.57292 24.7604 8.36979 24.9375 8.95312 25.0938C9.53646 25.25 9.96875 25.4688 10.25 25.75C10.5312 26.0208 10.7396 26.4271 10.875 26.9688C11.0104 27.5208 11.1458 28.2917 11.2812 29.2812C11.3021 29.4062 11.3542 29.5052 11.4375 29.5781C11.5208 29.6615 11.625 29.7031 11.75 29.7031ZM4.73438 16.9062C4.91146 16.9062 5.02083 16.8021 5.0625 16.5938C5.1875 15.9062 5.30208 15.3646 5.40625 14.9688C5.52083 14.5729 5.68229 14.2656 5.89062 14.0469C6.09896 13.8177 6.40104 13.6458 6.79688 13.5312C7.20312 13.4062 7.77604 13.276 8.51562 13.1406C8.71354 13.1094 8.8125 12.9948 8.8125 12.7969C8.8125 12.6094 8.71354 12.5 8.51562 12.4688C7.77604 12.3438 7.20312 12.2188 6.79688 12.0938C6.40104 11.9688 6.09896 11.7969 5.89062 11.5781C5.68229 11.3594 5.52083 11.0521 5.40625 10.6562C5.30208 10.25 5.1875 9.70833 5.0625 9.03125C5.02083 8.82292 4.91146 8.71875 4.73438 8.71875C4.54688 8.71875 4.43229 8.82292 4.39062 9.03125C4.26562 9.70833 4.14583 10.25 4.03125 10.6562C3.92708 11.0521 3.77083 11.3594 3.5625 11.5781C3.36458 11.7969 3.0625 11.9688 2.65625 12.0938C2.25 12.2188 1.68229 12.3438 0.953125 12.4688C0.744792 12.5 0.640625 12.6094 0.640625 12.7969C0.640625 12.9948 0.744792 13.1094 0.953125 13.1406C1.68229 13.276 2.25 13.4062 2.65625 13.5312C3.0625 13.6458 3.36458 13.8177 3.5625 14.0469C3.77083 14.2656 3.92708 14.5729 4.03125 14.9688C4.14583 15.3646 4.26562 15.9062 4.39062 16.5938C4.41146 16.6875 4.44792 16.7656 4.5 16.8281C4.5625 16.8802 4.64062 16.9062 4.73438 16.9062ZM12.7344 7.5625C12.8906 7.5625 12.9844 7.47396 13.0156 7.29688C13.1406 6.71354 13.25 6.25521 13.3438 5.92188C13.4479 5.58854 13.5833 5.33333 13.75 5.15625C13.9271 4.96875 14.1823 4.82292 14.5156 4.71875C14.8594 4.61458 15.3385 4.5 15.9531 4.375C16.1302 4.33333 16.2188 4.23958 16.2188 4.09375C16.2188 3.9375 16.1302 3.84375 15.9531 3.8125C15.3385 3.6875 14.8594 3.57292 14.5156 3.46875C14.1823 3.35417 13.9271 3.20833 13.75 3.03125C13.5833 2.85417 13.4479 2.59896 13.3438 2.26562C13.25 1.92188 13.1406 1.45833 13.0156 0.875C12.9844 0.708333 12.8906 0.625 12.7344 0.625C12.5885 0.625 12.5 0.708333 12.4688 0.875C12.3438 1.45833 12.2344 1.92188 12.1406 2.26562C12.0469 2.59896 11.9115 2.85417 11.7344 3.03125C11.5677 3.20833 11.3125 3.35417 10.9688 3.46875C10.625 3.57292 10.1458 3.6875 9.53125 3.8125C9.35417 3.84375 9.26562 3.9375 9.26562 4.09375C9.26562 4.23958 9.35417 4.33333 9.53125 4.375C10.1458 4.5 10.625 4.61458 10.9688 4.71875C11.3125 4.82292 11.5677 4.96875 11.7344 5.15625C11.9115 5.33333 12.0469 5.58854 12.1406 5.92188C12.2344 6.25521 12.3438 6.71354 12.4688 7.29688C12.5 7.47396 12.5885 7.5625 12.7344 7.5625ZM24.8281 12.7031C25.0156 12.7031 25.125 12.599 25.1562 12.3906C25.2917 11.7031 25.4115 11.1615 25.5156 10.7656C25.6302 10.3594 25.7865 10.0469 25.9844 9.82812C26.1927 9.60938 26.5 9.44271 26.9062 9.32812C27.3125 9.20312 27.875 9.07812 28.5938 8.95312C28.8125 8.91146 28.9219 8.79688 28.9219 8.60938C28.9219 8.42188 28.8125 8.30729 28.5938 8.26562C27.875 8.14062 27.3125 8.01562 26.9062 7.89062C26.5 7.76562 26.1927 7.59896 25.9844 7.39062C25.7865 7.17188 25.6302 6.85938 25.5156 6.45312C25.4115 6.04688 25.2917 5.50521 25.1562 4.82812C25.125 4.61979 25.0156 4.51562 24.8281 4.51562C24.6406 4.51562 24.5312 4.61979 24.5 4.82812C24.3646 5.50521 24.2396 6.04688 24.125 6.45312C24.0208 6.85938 23.8646 7.17188 23.6562 7.39062C23.4583 7.59896 23.1562 7.76562 22.75 7.89062C22.3438 8.01562 21.776 8.14062 21.0469 8.26562C20.9531 8.28646 20.875 8.32812 20.8125 8.39062C20.7604 8.44271 20.7344 8.51562 20.7344 8.60938C20.7344 8.79688 20.8385 8.91146 21.0469 8.95312C21.776 9.07812 22.3438 9.20312 22.75 9.32812C23.1562 9.44271 23.4583 9.60938 23.6562 9.82812C23.8646 10.0469 24.0208 10.3594 24.125 10.7656C24.2396 11.1615 24.3646 11.7031 24.5 12.3906C24.5312 12.599 24.6406 12.7031 24.8281 12.7031ZM30.0938 29.6875C30.3958 29.9896 30.7552 30.1406 31.1719 30.1406C31.5885 30.1406 31.9375 29.9896 32.2188 29.6875C32.5104 29.3854 32.6562 29.0312 32.6562 28.625C32.6562 28.2188 32.5104 27.8646 32.2188 27.5625L18.1406 13.4375C17.849 13.1458 17.4896 13 17.0625 13C16.6458 13 16.2969 13.1458 16.0156 13.4375C15.724 13.7396 15.5781 14.099 15.5781 14.5156C15.5781 14.9219 15.724 15.2708 16.0156 15.5625L30.0938 29.6875ZM21.4062 19.5469L17.0312 15.1719C16.9062 15.0469 16.8281 14.9167 16.7969 14.7812C16.776 14.6458 16.8333 14.5156 16.9688 14.3906C17.0625 14.2865 17.1771 14.2448 17.3125 14.2656C17.4479 14.2865 17.5885 14.3646 17.7344 14.5L22.1094 18.8594L21.4062 19.5469Z" fill="#DD7CFF"/>
</svg>
